Coordinates
version=1
nRows=32
nColumns=22
inDegrees=yes

Units are S.I. units (second, meters, Newtons, ...)
If the header above contains a line with 'inDegrees', this indicates whether rotational values are in degrees (yes) or radians (no).

endheader
time	pelvis_tilt	pelvis_list	pelvis_rotation	pelvis_tx	pelvis_ty	pelvis_tz	hip_flexion_r	hip_adduction_r	hip_rotation_r	knee_angle_r	ankle_angle_r	subtalar_angle_r	hip_flexion_l	hip_adduction_l	hip_rotation_l	knee_angle_l	ankle_angle_l	subtalar_angle_l	lumbar_extension	lumbar_bending	lumbar_rotation
      1.27000000	     -2.12939887	     -1.24088821	     -4.67427874	     -1.30911375	      0.92847464	      0.03747981	      2.47208407	      2.62230216	     -1.41905023	    -15.43210112	     10.37524150	     -2.60851986	     -1.20289502	     -3.47461782	    -13.49868141	    -11.19539861	     11.09181287	      0.67797677	     -3.09878630	     -3.35498760	      1.58638238
      1.28000000	     -2.11858167	     -1.23597144	     -4.71066671	     -1.30782652	      0.92818342	      0.03869198	      2.43022339	      2.69851452	     -1.35253188	    -15.55958219	     10.52635382	     -2.69985992	     -1.20919142	     -3.55593100	    -13.51787662	    -11.40741849	     11.25017850	      0.67870050	     -3.12637616	     -3.38739321	      1.58630467
      1.29000000	     -2.11347831	     -1.24533620	     -4.76438319	     -1.30650380	      0.92785561	      0.03998831	      2.38930324	      2.79475971	     -1.26678612	    -15.68491997	     10.68012563	     -2.80076634	     -1.17772952	     -3.66387002	    -13.53908237	    -11.69619003	     11.44077131	      0.67060343	     -3.14613268	     -3.39904974	      1.60721742
      1.30000000	     -2.11586130	     -1.26880178	     -4.82989623	     -1.30516399	      0.92749418	      0.04140251	      2.35310834	      2.91500603	     -1.16049364	    -15.80870420	     10.83749788	     -2.89896923	     -1.10167508	     -3.80312921	    -13.55498011	    -12.06587441	     11.65830838	      0.65544155	     -3.16001615	     -3.40108005	      1.64700022
      1.31000000	     -2.18470046	     -1.32405072	     -4.92628838	     -1.30384794	      0.92701039	      0.04296442	      2.39470052	      3.08540004	     -1.01478820	    -15.94613523	     10.94965843	     -3.08766386	     -0.90065750	     -4.00348545	    -13.57795215	    -12.55610230	     11.93368792	      0.62354321	     -3.10180382	     -3.36591071	      1.74501936
      1.32000000	     -2.16647103	     -1.36323799	     -5.01344293	     -1.30243465	      0.92660851	      0.04455783	      2.32507413	      3.22905607	     -0.87705101	    -16.06816122	     11.16292330	     -3.13778553	     -0.76390974	     -4.18481920	    -13.55643174	    -13.10745220	     12.17934076	      0.61359381	     -3.13908261	     -3.35176124	      1.80411436
      1.33000000	     -2.25877017	     -1.46088568	     -5.14960396	     -1.30109918	      0.92602383	      0.04635600	      2.38786705	      3.46147249	     -0.68166220	    -16.21291189	     11.25414316	     -3.29448392	     -0.43646432	     -4.46831144	    -13.54182967	    -13.82229788	     12.51825523	      0.59816348	     -3.06288084	     -3.27301552	      1.96616892
      1.34000000	     -2.29610764	     -1.55834657	     -5.28553594	     -1.29967689	      0.92546999	      0.04818926	      2.37634487	      3.68717469	     -0.48977687	    -16.34752530	     11.40375540	     -3.39869477	     -0.12670929	     -4.75564169	    -13.48868346	    -14.62840755	     12.84674589	      0.59988740	     -3.04593839	     -3.19200263	      2.12248193
      1.35000000	     -2.33420068	     -1.67920548	     -5.43573138	     -1.29825106	      0.92487499	      0.05011677	      2.35541085	      3.94289098	     -0.27963790	    -16.47200014	     11.54330702	     -3.49979830	      0.25214088	     -5.08679713	    -13.40108524	    -15.57962613	     13.18981233	      0.60923034	     -3.03972593	     -3.08896351	      2.30805155
      1.36000000	     -2.36637040	     -1.81735389	     -5.58895505	     -1.29682216	      0.92425165	      0.05209514	      2.31800251	      4.21828830	     -0.06438375	    -16.58725422	     11.68216370	     -3.59533934	      0.70479341	     -5.45205125	    -13.26364076	    -16.69196047	     13.53160201	      0.61797679	     -3.05303175	     -2.96630900	      2.51018694
      1.37000000	     -2.40184833	     -1.97806322	     -5.73673876	     -1.29540684	      0.92358686	      0.05411095	      2.27395521	      4.51978371	      0.14688169	    -16.69027733	     11.80972014	     -3.68834555	      1.25867992	     -5.85724887	    -13.06384607	    -17.99730018	     13.87114111	      0.61072328	     -3.07862041	     -2.82192527	      2.72220605
      1.38000000	     -2.41208837	     -2.15714764	     -5.86943327	     -1.29400100	      0.92292239	      0.05611741	      2.19207057	      4.83539753	      0.33557999	    -16.78106062	     11.94054056	     -3.76141965	      1.89570135	     -6.28877086	    -12.77887746	    -19.51286882	     14.18837889	      0.56657990	     -3.15402523	     -2.65748790	      2.93862015
      1.39000000	     -2.42826585	     -2.34704929	     -5.97219857	     -1.29263556	      0.92222242	      0.05808632	      2.11134309	      5.16062688	      0.49340081	    -16.86250050	     12.06237910	     -3.83109888	      2.68222160	     -6.74052125	    -12.39789123	    -21.28650902	     14.45194238	      0.45883371	     -3.24534999	     -2.48189620	      3.13763965
      1.40000000	     -2.42771352	     -2.54857804	     -6.03593899	     -1.29130858	      0.92152399	      0.05998460	      2.00863372	      5.49141310	      0.60160287	    -16.93412245	     12.19071554	     -3.88652171	      3.60599789	     -7.20370544	    -11.91250522	    -23.33154564	     14.64155670	      0.26659836	     -3.38412650	     -2.29613936	      3.31769346
      1.41000000	     -2.40529594	     -2.75159788	     -6.05508797	     -1.29001471	      0.92083911	      0.06177199	      1.88603267	      5.81570882	      0.65682378	    -17.00762192	     12.31965083	     -3.92807131	      4.67165904	     -7.65629938	    -11.32524554	    -25.65226060	     14.72475159	     -0.01950573	     -3.57533711	     -2.11030980	      3.46881347
      1.42000000	     -2.42212359	     -2.91808141	     -6.02781023	     -1.28877624	      0.92008474	      0.06340053	      1.83610253	      6.09450064	      0.63453039	    -17.12282400	     12.49732995	     -3.96853412	      5.96370938	     -8.05736540	    -10.66291936	    -28.25813668	     14.61740783	     -0.48041007	     -3.74680450	     -1.95898940	      3.59370304
      1.43000000	     -2.30045920	     -3.13999311	     -5.93800161	     -1.28747860	      0.91952767	      0.06486572	      1.59858589	      6.41390871	      0.59302918	    -17.17238904	     12.60112348	     -3.97642433	      7.24144633	     -8.47687620	     -9.93138293	    -31.07450466	     14.46197212	     -0.89532052	     -4.11352521	     -1.75325433	      3.66891929
      1.44000000	     -2.25228230	     -3.28651571	     -5.82407171	     -1.28622104	      0.91886610	      0.06614932	      1.49832378	      6.64612167	      0.46975593	    -17.31055194	     12.79962400	     -3.98269763	      8.75037643	     -8.78892695	     -9.18746372	    -34.08381798	     14.07125816	     -1.51252295	     -4.41240970	     -1.62039475	      3.76210300
      1.45000000	     -2.10660953	     -3.43659029	     -5.66990798	     -1.28486780	      0.91838039	      0.06726984	      1.26229923	      6.86573357	      0.33327158	    -17.39128015	     12.95360593	     -3.97239190	     10.23881450	     -9.05565247	     -8.44847654	    -37.16986996	     13.57015016	     -2.07307334	     -4.84545063	     -1.48872746	      3.81430474
      1.46000000	     -1.86900069	     -3.57477927	     -5.47080309	     -1.28338326	      0.91809099	      0.06820159	      0.89295558	      7.05497160	      0.18096667	    -17.40880467	     13.03598259	     -3.95332857	     11.68158708	     -9.24956822	     -7.71131507	    -40.24899817	     12.94898507	     -2.52248836	     -5.39563659	     -1.37002937	      3.82815282
      1.47000000	     -1.65229199	     -3.64645499	     -5.28099383	     -1.28182771	      0.91782599	      0.06899432	      0.56663214	      7.16228685	      0.00578310	    -17.46012573	     13.16826376	     -3.92290796	     13.17527820	     -9.32420279	     -7.03197136	    -43.25584055	     12.25551397	     -2.98215869	     -5.92470106	     -1.31897338	      3.87720003
      1.48000000	     -1.43370473	     -3.65854733	     -5.12686037	     -1.28015163	      0.91763198	      0.06970092	      0.24773613	      7.19140513	     -0.18683862	    -17.53379389	     13.35028366	     -3.87547075	     14.64708570	     -9.29730934	     -6.46782895	    -46.09970511	     11.58315933	     -3.38005715	     -6.45020302	     -1.33239368	      3.99719065
      1.49000000	     -1.14567329	     -3.60957869	     -4.97472343	     -1.27829167	      0.91766761	      0.07029834	     -0.19212433	      7.14427413	     -0.32336912	    -17.52599234	     13.44302656	     -3.82370635	     15.98769219	     -9.14728108	     -5.97788281	    -48.67699215	     10.93198287	     -3.57871023	     -7.04651979	     -1.41815112	      4.07821168
      1.50000000	     -0.91167973	     -3.50046349	     -4.88593086	     -1.27632412	      0.91770683	      0.07087275	     -0.55769864	      7.02494696	     -0.45830118	    -17.55633853	     13.59566163	     -3.74183649	     17.32310859	     -8.92054818	     -5.64251786	    -50.97338166	     10.41695493	     -3.68495894	     -7.56970241	     -1.56905671	      4.23775582
      1.51000000	     -0.65982125	     -3.31267808	     -4.84012360	     -1.27416816	      0.91791105	      0.07142248	     -0.97477284	      6.81538716	     -0.53090725	    -17.53438979	     13.67997092	     -3.66632472	     18.54033858	     -8.59086959	     -5.45002103	    -52.90008933	      9.98226047	     -3.65630532	     -8.09168750	     -1.81384173	      4.40484037
      1.52000000	     -0.46445196	     -3.06896614	     -4.86713725	     -1.27186487	      0.91813072	      0.07201727	     -1.33349274	      6.54533700	     -0.55433148	    -17.52057294	     13.78639276	     -3.57430645	     19.71980711	     -8.22597951	     -5.44192143	    -54.45842134	      9.67518690	     -3.51736314	     -8.52664414	     -2.12458271	      4.62943863
      1.53000000	     -0.27564818	     -2.79911729	     -4.95535596	     -1.26937131	      0.91844451	      0.07269211	     -1.72261514	      6.25041534	     -0.49074298	    -17.45456820	     13.87559810	     -3.51460752	     20.79780673	     -7.87760147	     -5.62342940	    -55.62866796	      9.45083968	     -3.35703809	     -8.92989953	     -2.47485552	      4.86886819
      1.54000000	     -0.17367456	     -2.46037719	     -5.10598405	     -1.26673686	      0.91872704	      0.07341548	     -2.01808065	      5.88547203	     -0.38136298	    -17.39235002	     13.94565915	     -3.45184886	     21.85497926	     -7.49764885	     -5.95742226	    -56.38567923	      9.30695078	     -3.08634685	     -9.20581576	     -2.90490874	      5.15725871
      1.55000000	     -0.12126592	     -2.12000652	     -5.30934778	     -1.26392653	      0.91897467	      0.07422274	     -2.27047807	      5.52228654	     -0.24977099	    -17.33071554	     14.04153424	     -3.38867373	     22.85381685	     -7.18513593	     -6.44516204	    -56.75921969	      9.25597957	     -2.56446337	     -9.39649402	     -3.33777957	      5.46234973
      1.56000000	     -0.08933838	     -1.75574140	     -5.56490890	     -1.26096419	      0.91924992	      0.07511584	     -2.52009700	      5.13923473	     -0.04201107	    -17.24123342	     14.10080368	     -3.39058890	     23.75917514	     -6.91659572	     -7.09442356	    -56.74387664	      9.19086834	     -2.26921064	     -9.54039435	     -3.80570496	      5.78367698
      1.57000000	     -0.09210588	     -1.38786278	     -5.85085046	     -1.25784371	      0.91948342	      0.07604259	     -2.75197065	      4.75752340	      0.21330650	    -17.12763440	     14.17200365	     -3.43043469	     24.58837361	     -6.69613986	     -7.83827049	    -56.36058282	      9.13561157	     -1.92108962	     -9.62161880	     -4.27277632	      6.09725927
      1.58000000	     -0.11381569	     -1.02296900	     -6.15953239	     -1.25457045	      0.91968378	      0.07700081	     -2.97927113	      4.38384977	      0.50607363	    -16.99696307	     14.25848217	     -3.52292971	     25.32075168	     -6.52122168	     -8.65407632	    -55.62253623	      9.04400458	     -1.57780669	     -9.66168003	     -4.73604943	      6.40898288
